<svg width="200" height="200" viewBox="0 0 200 200" xmlns="http://www.w3.org/2000/svg">
  <rect width="200" height="200" fill="#f9f9f9"/>
  
  <line x1="0" y1="100" x2="200" y2="100" stroke="#e0e0e0" stroke-width="1"/>
  <line x1="100" y1="0" x2="100" y2="200" stroke="#e0e0e0" stroke-width="1"/>
  
  <line x1="0" y1="100" x2="200" y2="100" stroke="#333" stroke-width="2"/>
  <line x1="100" y1="0" x2="100" y2="200" stroke="#333" stroke-width="2"/>
  
  <polygon points="200,100 195,97 195,103" fill="#333"/>
  <polygon points="100,0 97,5 103,5" fill="#333"/>
  
  <polyline points="10,0 20,20.00 25,29.69 30,38.75 35,47.19 40,55.00 45,62.19 50,68.75 55,74.69 60,80.00 65,84.69 70,88.75 75,92.19 80,95.00 85,97.19 90,98.75 95,99.69 100,100.00 105,99.69 110,98.75 115,97.19 120,95.00 125,92.19 130,88.75 135,84.69 140,80.00 145,74.69 150,68.75 155,62.19 160,55.00 165,47.19 170,38.75 175,29.69 180,20.00 190,0" 
            stroke="#3F51B5" stroke-width="3" fill="none"/>
  
  <text x="185" y="95" font-size="12" fill="#333">x</text>
  <text x="105" y="15" font-size="12" fill="#333">y</text>
</svg>