<svg width="200" height="200" viewBox="0 0 200 200" xmlns="http://www.w3.org/2000/svg">
  <rect width="200" height="200" fill="#f9f9f9"/>
  
  <line x1="0" y1="100" x2="200" y2="100" stroke="#e0e0e0" stroke-width="1"/>
  <line x1="100" y1="0" x2="100" y2="200" stroke="#e0e0e0" stroke-width="1"/>
  
  <line x1="0" y1="100" x2="200" y2="100" stroke="#333" stroke-width="2"/>
  <line x1="100" y1="0" x2="100" y2="200" stroke="#333" stroke-width="2"/>
  
  <polygon points="200,100 195,97 195,103" fill="#333"/>
  <polygon points="100,0 97,5 103,5" fill="#333"/>
  
  <polyline points="0,125.00 2,125.51 4,126.04 6,126.60 8,127.17 10,127.78 12,128.41 14,129.07 16,129.76 18,130.49 20,131.25 22,132.05 24,132.89 26,133.78 28,134.72 30,135.71 32,136.76 34,137.88 36,139.06 38,140.32 40,141.67 42,143.10 44,144.64 46,146.30 48,148.08 50,150.00 52,152.08 54,154.35 56,156.82 58,159.52 60,162.50 62,165.79 64,169.44 66,173.53 68,178.12 70,183.33 72,189.29 74,196.15 76,204.17 78,213.64 80,225.00" 
            stroke="#3F51B5" stroke-width="3" fill="none"/>
            
  <polyline points="121,-19.05 123,-8.70 125,0.00 127,7.41 129,13.79 131,19.35 133,24.24 135,28.57 137,32.43 139,35.90 141,39.02 143,41.86 145,44.44 147,46.81 149,48.98 151,50.98 153,52.83 155,54.55 157,56.14 159,57.63 161,59.02 163,60.32 165,61.54 167,62.69 169,63.77 171,64.79 173,65.75 175,66.67 177,67.53 179,68.35 181,69.14 183,69.88 185,70.59 187,71.26 189,71.91 191,72.53 193,73.12 195,73.68 197,74.23 199,74.75" 
            stroke="#3F51B5" stroke-width="3" fill="none"/>
  
  <text x="185" y="95" font-size="12" fill="#333">x</text>
  <text x="105" y="15" font-size="12" fill="#333">y</text>
</svg>
