<svg width="200" height="200" viewBox="0 0 200 200" xmlns="http://www.w3.org/2000/svg">
  <rect width="200" height="200" fill="#f9f9f9"/>
  
  <line x1="0" y1="100" x2="200" y2="100" stroke="#e0e0e0" stroke-width="1"/>
  <line x1="100" y1="0" x2="100" y2="200" stroke="#e0e0e0" stroke-width="1"/>
  
  <line x1="0" y1="100" x2="200" y2="100" stroke="#333" stroke-width="2"/>
  <line x1="100" y1="0" x2="100" y2="200" stroke="#333" stroke-width="2"/>
  
  <polygon points="200,100 195,97 195,103" fill="#333"/>
  <polygon points="100,0 97,5 103,5" fill="#333"/>
  
  <polyline points="13 0,20,20.00 25,34.08 30,46.41 35,57.09 40,66.25 45,74.00 50,80.47 55,85.76 60,90.00 65,93.30 70,95.78 75,97.56 80,98.75 85,99.47 90,99.84 95,99.98 100,100.00 105,100.02 110,100.16 115,100.53 120,101.25 125,102.44 130,104.22 135,106.70 140,110.00 145,114.24 150,119.53 155,126.00 160,133.75 165,142.91 170,153.59 175,165.92 180,180.00 187, 200" 
            stroke="#3F51B5" stroke-width="3" fill="none"/>
  
  <text x="185" y="95" font-size="12" fill="#333">x</text>
  <text x="105" y="15" font-size="12" fill="#333">y</text>
</svg>