<svg width="200" height="200" viewBox="0 0 200 200" xmlns="http://www.w3.org/2000/svg">
  <rect width="200" height="200" fill="#f9f9f9"/>
  
  <line x1="0" y1="100" x2="200" y2="100" stroke="#e0e0e0" stroke-width="1"/>
  <line x1="100" y1="0" x2="100" y2="200" stroke="#e0e0e0" stroke-width="1"/>
  
  <line x1="0" y1="100" x2="200" y2="100" stroke="#333" stroke-width="2"/>
  <line x1="100" y1="0" x2="100" y2="200" stroke="#333" stroke-width="2"/>
  
  <polygon points="200,100 195,97 195,103" fill="#333"/>
  <polygon points="100,0 97,5 103,5" fill="#333"/>
  
  <polyline points="0,5 20,13.13 25,15.82 30,18.61 35,21.51 40,24.53 45,27.69 50,31.01 55,34.53 60,38.28 65,42.32 70,46.72 75,51.61 80,57.16 85,63.69 90,71.72 95,82.11 100,100.00" 
            stroke="#607D8B" stroke-width="3" fill="none"/>
  
  <text x="185" y="95" font-size="12" fill="#333">x</text>
  <text x="105" y="15" font-size="12" fill="#333">y</text>
</svg>

