<svg width="200" height="200" viewBox="0 0 200 200" xmlns="http://www.w3.org/2000/svg">
  <rect width="200" height="200" fill="#f9f9f9"/>
  
  <line x1="0" y1="100" x2="200" y2="100" stroke="#e0e0e0" stroke-width="1"/>
  <line x1="100" y1="0" x2="100" y2="200" stroke="#e0e0e0" stroke-width="1"/>
  
  <line x1="0" y1="100" x2="200" y2="100" stroke="#333" stroke-width="2"/>
  <line x1="100" y1="0" x2="100" y2="200" stroke="#333" stroke-width="2"/>
  
  <polygon points="200,100 195,97 195,103" fill="#333"/>
  <polygon points="100,0 97,5 103,5" fill="#333"/>
  
  <polyline points="0,75.00 2,74.49 4,73.96 6,73.40 8,72.83 10,72.22 12,71.59 14,70.93 16,70.24 18,69.51 20,68.75 22,67.95 24,67.11 26,66.22 28,65.28 30,64.29 32,63.24 34,62.12 36,60.94 38,59.68 40,58.33 42,56.90 44,55.36 46,53.70 48,51.92 50,50.00 52,47.92 54,45.65 56,43.18 58,40.48 60,37.50 62,34.21 64,30.56 66,26.47 68,21.88 70,16.67 72,10.71 74,3.85 76,-4.17 78,-13.64 80,-25.00" 
            stroke="#3F51B5" stroke-width="3" fill="none"/>
            
  <polyline points="121,219.05 123,208.70 125,200.00 127,192.59 129,186.21 131,180.65 133,175.76 135,171.43 137,167.57 139,164.10 141,160.98 143,158.14 145,155.56 147,153.19 149,151.02 151,149.02 153,147.17 155,145.45 157,143.86 159,142.37 161,140.98 163,139.68 165,138.46 167,137.31 169,136.23 171,135.21 173,134.25 175,133.33 177,132.47 179,131.65 181,130.86 183,130.12 185,129.41 187,128.74 189,128.09 191,127.47 193,126.88 195,126.32 197,125.77 199,125.25" 
            stroke="#3F51B5" stroke-width="3" fill="none"/>
  
  <text x="185" y="95" font-size="12" fill="#333">x</text>
  <text x="105" y="15" font-size="12" fill="#333">y</text>
</svg>
